<?xml version="1.0" encoding="UTF-8"?>
<svg width="74px" height="52px" viewBox="0 0 74 52" version="1.1" xmlns="http://www.w3.org/2000/svg" xmlns:xlink="http://www.w3.org/1999/xlink">
    <!-- Generator: Sketch 64 (93537) - https://sketch.com -->
    <title>logo_header_7qbd6vz</title>
    <desc>Created with Sketch.</desc>
    <g id="Page-1" stroke="none" stroke-width="1" fill="none" fill-rule="evenodd">
        <g id="logo_header_7qbd6vz" fill-rule="nonzero">
            <path d="M30.5994965,6.0631817 C32.9525422,3.59330995 36.2284952,2.06053387 39.8520336,2.06053387 C44.6676224,2.06053387 48.8699333,4.76635996 51.1070404,8.78384186 C53.052461,7.90816849 55.2046845,7.42096218 57.469166,7.42096218 C66.1558128,7.42096218 73.198157,14.5786301 73.198157,23.4086071 C73.198157,32.238584 66.1558128,39.396252 57.469166,39.396252 C56.4086968,39.396252 55.3726113,39.2889368 54.3705714,39.085432 C52.4003068,42.6261378 48.6447273,45.018826 44.3349893,45.018826 C42.5310413,45.018826 40.8243989,44.5995319 39.3047763,43.8522659 C37.3075974,48.5871139 32.6528043,51.9066994 27.2294585,51.9066994 C21.5804467,51.9066994 16.7657781,48.3057303 14.9185832,43.254963 C14.1106943,43.4269455 13.2735906,43.5175723 12.4155536,43.5175723 C5.68996996,43.5175723 0.23809962,37.9670826 0.23809962,31.1197711 C0.23809962,26.5307141 2.68730061,22.5245895 6.32740172,20.3806036 C5.57794208,18.6427003 5.16157561,16.7256292 5.16157561,14.7102825 C5.16157561,6.83524841 11.5059884,0.451037856 19.3322978,0.451037856 C23.9270513,0.451037856 28.0104332,2.65204219 30.5994965,6.0631817" id="Fill-23" fill="#00A1E0"></path>
            <path d="M10.8054346,27.134646 C10.7594273,27.2554045 10.8217672,27.280437 10.8367196,27.301761 C10.9733614,27.4016591 11.1127637,27.4739752 11.2533161,27.555099 C11.9972549,27.952142 12.7002471,28.0684967 13.4347543,28.0684967 C14.9313733,28.0684967 15.8611817,27.2667619 15.8611817,25.9757347 L15.8611817,25.9502386 C15.8611817,24.75656 14.8117542,24.3226636 13.8281171,24.0097576 L13.6997567,23.9675732 C12.9578882,23.7251289 12.317466,23.5155978 12.317466,23.0230605 L12.317466,22.9975644 C12.317466,22.5761843 12.6919658,22.2662914 13.2718883,22.2662914 C13.9164512,22.2662914 14.6806332,22.4823125 15.1733719,22.7562791 C15.1733719,22.7562791 15.3185251,22.8508463 15.3714335,22.7094591 C15.3999581,22.6334345 15.6495479,21.9575574 15.6755421,21.8843142 C15.7038366,21.8048129 15.6541487,21.7454767 15.6028505,21.7141861 C15.0401806,21.3692941 14.2631166,21.1342668 13.4586782,21.1342668 L13.3093843,21.1347304 C11.9397457,21.1347304 10.983023,21.9689148 10.983023,23.1637523 L10.983023,23.1892484 C10.983023,24.4480578 12.0379714,24.8573853 13.0266692,25.1420139 L13.1853945,25.1911517 C13.9054095,25.4138945 14.5267387,25.606042 14.5267387,26.1164265 L14.5267387,26.1419226 C14.5267387,26.6091956 14.1225641,26.9561736 13.4720203,26.9561736 C13.21967,26.9561736 12.4147715,26.9517698 11.5445426,26.3971148 C11.4391858,26.3356925 11.3786861,26.2909586 11.2977132,26.2411254 C11.2546963,26.2144704 11.1474992,26.1674186 11.1010318,26.3090376 L10.8054346,27.134646 Z" id="Fill-26" fill="#FFFFFF"></path>
            <path d="M32.7153053,27.134646 C32.669298,27.2554045 32.7316379,27.280437 32.7465903,27.301761 C32.8832321,27.4016591 33.0226344,27.4739752 33.1631868,27.555099 C33.9071256,27.952142 34.6101178,28.0684967 35.3446251,28.0684967 C36.841244,28.0684967 37.7710524,27.2667619 37.7710524,25.9757347 L37.7710524,25.9502386 C37.7710524,24.75656 36.7216249,24.3226636 35.7379879,24.0097576 L35.6096274,23.9675732 C34.8677589,23.7251289 34.2273367,23.5155978 34.2273367,23.0230605 L34.2273367,22.9975644 C34.2273367,22.5761843 34.6020665,22.2662914 35.1817591,22.2662914 C35.826322,22.2662914 36.590504,22.4823125 37.0832426,22.7562791 C37.0832426,22.7562791 37.2283958,22.8508463 37.2813042,22.7094591 C37.3098288,22.6334345 37.5591886,21.9575574 37.5854128,21.8843142 C37.6137073,21.8048129 37.5640194,21.7454767 37.5129512,21.7141861 C36.9500514,21.3692941 36.1729873,21.1342668 35.3687789,21.1342668 L35.219255,21.1347304 C33.8496164,21.1347304 32.8928937,21.9689148 32.8928937,23.1637523 L32.8928937,23.1892484 C32.8928937,24.4480578 33.947612,24.8573853 34.9365399,25.1420139 L35.0952653,25.1911517 C35.8150502,25.4138945 36.4366094,25.606042 36.4366094,26.1164265 L36.4366094,26.1419226 C36.4366094,26.6091956 36.0326649,26.9561736 35.382121,26.9561736 C35.1295407,26.9561736 34.3244122,26.9517698 33.4541833,26.3971148 C33.3488264,26.3356925 33.2871766,26.2930446 33.2075839,26.2411254 C33.1804396,26.2235099 33.0541494,26.1741403 33.0109025,26.3090376 L32.7153053,27.134646 Z" id="Fill-28" fill="#FFFFFF"></path>
            <path d="M47.6726381,24.6054148 C47.6726381,25.3348336 47.5376066,25.9105807 47.2716841,26.3164314 C47.008062,26.7190372 46.6100985,26.9146614 46.0550199,26.9146614 C45.4997112,26.9146614 45.103588,26.719269 44.8443366,26.3166632 C44.5825548,25.9108125 44.4495936,25.3348336 44.4495936,24.6054148 C44.4495936,23.8762278 44.5823248,23.3027985 44.8441066,22.900888 C45.103588,22.5022226 45.4997112,22.3089162 46.0550199,22.3089162 C46.6100985,22.3089162 47.008062,22.5026861 47.2719141,22.9011198 C47.5378366,23.3027985 47.6726381,23.8762278 47.6726381,24.6054148 M48.9221976,23.2527335 C48.799128,22.8345983 48.6079674,22.4665281 48.3535468,22.1591848 C48.0986661,21.851378 47.7761546,21.6040663 47.3940636,21.4244351 C47.0124327,21.2448038 46.5617908,21.1539452 46.0550199,21.1539452 C45.548249,21.1539452 45.097377,21.2448038 44.715516,21.4244351 C44.3336551,21.6040663 44.0109136,21.851378 43.7558028,22.1596484 C43.5016123,22.4674552 43.3102217,22.8352937 43.1873821,23.2527335 C43.0656927,23.6680873 43.0038128,24.1230759 43.0038128,24.6054148 C43.0038128,25.0882172 43.0656927,25.5432058 43.1873821,25.958096 C43.3102217,26.3755359 43.5011522,26.7433743 43.7560329,27.0516447 C44.0113736,27.3601469 44.3345752,27.6053726 44.7159761,27.7806 C45.0980671,27.9558273 45.548479,28.0445999 46.0550199,28.0445999 C46.5613307,28.0445999 47.0115126,27.9558273 47.3936036,27.7806 C47.7752345,27.6053726 48.0984361,27.3601469 48.3535468,27.0516447 C48.6079674,26.7445333 48.799128,26.376463 48.9221976,25.958096 C49.0441171,25.5425105 49.1057669,25.0875219 49.1057669,24.6054148 C49.1057669,24.1235395 49.0441171,23.6685509 48.9221976,23.2527335" id="Fill-30" fill="#FFFFFF"></path>
            <path d="M59.1806623,26.7196398 C59.1394857,26.5972588 59.0214769,26.6433835 59.0214769,26.6433835 C58.8395178,26.7136135 58.646517,26.778049 58.4401741,26.8107303 C58.2319908,26.8436433 58.0019541,26.8600999 57.7555848,26.8600999 C57.1515083,26.8600999 56.6705015,26.6786144 56.3268267,26.3207426 C55.9822317,25.9621754 55.7878506,25.3831833 55.790151,24.5997593 C55.7924514,23.8874924 55.9633687,23.35138 56.2697776,22.9422844 C56.5741162,22.5359701 57.0381002,22.3278296 57.6555188,22.3278296 C58.1710311,22.3278296 58.5643939,22.3878612 58.9763897,22.517891 C58.9763897,22.517891 59.0741553,22.5612343 59.1210828,22.4309727 C59.2308103,22.1252519 59.3120132,21.9071448 59.4284118,21.5710605 C59.4617671,21.4753344 59.3803341,21.434309 59.3506594,21.4224881 C59.1889436,21.3592115 58.8063925,21.2549095 58.5174664,21.2108709 C58.2474033,21.1696136 57.9317929,21.1473625 57.5800667,21.1473625 C57.055353,21.1473625 56.5874583,21.2382212 56.1876545,21.4173889 C55.7883107,21.5967883 55.4496967,21.8441 55.1814738,22.1519069 C54.9134811,22.4599455 54.7089784,22.8277839 54.5737168,23.2452238 C54.4384552,23.6608094 54.3699043,24.1169568 54.3699043,24.6002229 C54.3699043,25.6446337 54.6496289,26.4878576 55.201027,27.1057891 C55.7542653,27.7260384 56.5844678,28.0407987 57.6677107,28.0407987 C58.3076729,28.0407987 58.9641977,27.9105371 59.4366931,27.7230252 C59.4366931,27.7230252 59.5270976,27.6794502 59.4875313,27.5735257 L59.1806623,26.7196398 Z" id="Fill-32" fill="#FFFFFF"></path>
            <path d="M61.3664482,23.9063363 C61.4262578,23.5007174 61.5366754,23.1639377 61.7080527,22.9008649 C61.9675342,22.5021994 62.3620472,22.2827016 62.9173558,22.2827016 C63.4724344,22.2827016 63.8386529,22.5026629 64.102505,22.9013284 C64.2766428,23.1641695 64.352785,23.5153196 64.3826897,23.9067999 L61.3664482,23.9063363 Z M65.5722096,23.0155971 C65.4661627,22.6118324 65.2034608,22.204591 65.0316233,22.0180062 C64.7592598,21.7229474 64.4928773,21.5159659 64.2283351,21.4016972 C63.88351,21.2524294 63.469674,21.153922 63.0171917,21.153922 C62.4892575,21.153922 62.0098609,21.2436217 61.6208688,21.427425 C61.2316467,21.6114602 60.9040744,21.8634075 60.6473534,22.17585 C60.3904024,22.4882924 60.1976316,22.8605348 60.074562,23.2823785 C59.9514923,23.7019044 59.8891524,24.1594425 59.8891524,24.6420132 C59.8891524,25.1333916 59.9535627,25.5916251 60.081003,26.0025751 C60.2093635,26.4179289 60.4154764,26.7825224 60.6935908,27.0856936 C60.9717052,27.3900237 61.3294123,27.6289912 61.7572806,27.7954108 C62.1826185,27.9613669 62.699281,28.0473582 63.2920856,28.0455333 C64.5138107,28.0417954 65.1565333,27.7671334 65.4219956,27.6192563 C65.4689231,27.5930649 65.5133202,27.547172 65.4578814,27.4157515 L65.1811472,26.6355724 C65.1388204,26.5189859 65.0219618,26.5616339 65.0219618,26.5616339 C64.7190034,26.6752072 64.2895249,26.878712 63.2856446,26.876626 C62.6305,26.8754671 62.1442024,26.6803064 61.8389436,26.3752809 C61.5267838,26.0635338 61.3733493,25.6050685 61.3473552,24.9581642 L65.5754301,24.9614092 C65.5754301,24.9614092 65.6867679,24.9600185 65.6982697,24.8503855 C65.7031005,24.8051879 65.843653,23.9751756 65.5722096,23.0155971 Z" id="Fill-34" fill="#FFFFFF"></path>
            <path d="M27.4983715,23.9063363 C27.558181,23.5007174 27.6685987,23.1639377 27.839976,22.9008649 C28.0994574,22.5021994 28.4939704,22.2827016 29.0492791,22.2827016 C29.6045877,22.2827016 29.9705761,22.5026629 30.2346583,22.9013284 C30.4085661,23.1641695 30.4847082,23.5153196 30.514613,23.9067999 L27.4983715,23.9063363 Z M31.7041329,23.0155971 C31.5978559,22.6118324 31.3356141,22.204591 31.1633166,22.0180062 C30.8911831,21.7229474 30.6248006,21.5159659 30.3602584,21.4016972 C30.0154333,21.2524294 29.6015972,21.153922 29.149115,21.153922 C28.6211807,21.153922 28.1417842,21.2436217 27.7527921,21.427425 C27.36357,21.6114602 27.0359977,21.8634075 26.7790466,22.17585 C26.5220956,22.4882924 26.3295549,22.8605348 26.2064852,23.2823785 C26.0834156,23.7019044 26.0210756,24.1594425 26.0210756,24.6420132 C26.0210756,25.1333916 26.0852559,25.5916251 26.2129263,26.0025751 C26.3412868,26.4179289 26.5473997,26.7825224 26.8255141,27.0856936 C27.1036285,27.3900237 27.4613356,27.6289912 27.8892039,27.7954108 C28.3147718,27.9613669 28.8309742,28.0473582 29.4240089,28.0455333 C30.6457339,28.0417954 31.2884565,27.7671334 31.5539189,27.6192563 C31.6006164,27.5930649 31.6450135,27.547172 31.5895746,27.4157515 L31.3130705,26.6355724 C31.2707437,26.5189859 31.153885,26.5616339 31.153885,26.5616339 C30.8509267,26.6752072 30.4216782,26.878712 29.4175679,26.876626 C28.7624233,26.8754671 28.2761256,26.6803064 27.9708669,26.3752809 C27.6587071,26.0635338 27.5052726,25.6050685 27.4792784,24.9581642 L31.7073534,24.9614092 C31.7073534,24.9614092 31.8186912,24.9600185 31.830193,24.8503855 C31.8350238,24.8051879 31.9755762,23.9751756 31.7041329,23.0155971 Z" id="Fill-36" fill="#FFFFFF"></path>
            <path d="M18.3575632,26.6963225 C18.1919368,26.5630477 18.1689331,26.5301347 18.1134943,26.4436799 C18.0297609,26.3131865 17.9869741,26.1268335 17.9869741,25.8894885 C17.9869741,25.5153919 18.1102738,25.2455974 18.3642343,25.0645754 C18.3619339,25.0655026 18.7290725,24.745643 19.5910201,24.7567686 C20.1969369,24.7646492 20.7391334,24.8550443 20.7391334,24.8550443 L20.7391334,26.7922804 L20.7393635,26.7922804 C20.7393635,26.7922804 20.2019977,26.9086351 19.5972311,26.9452567 C18.7368938,26.9974077 18.3550328,26.6956272 18.3575632,26.6963225 M20.0402819,23.7019275 C19.8686745,23.6894113 19.646459,23.6829214 19.3800765,23.6829214 C19.0179987,23.6829214 18.6676527,23.7283507 18.3387002,23.8175869 C18.0083675,23.9072866 17.7113901,24.0461242 17.4558193,24.2301593 C17.1988683,24.4160487 16.9922953,24.6522348 16.8425414,24.9329231 C16.6923274,25.2138432 16.6161852,25.5443647 16.6161852,25.9147528 C16.6161852,26.2923261 16.6815157,26.6200662 16.8101062,26.8875429 C16.9391568,27.1566421 17.1247964,27.3810073 17.3615042,27.5543805 C17.5966017,27.7270583 17.886448,27.8533796 18.2229917,27.9303313 C18.5549347,28.0068194 18.9317349,28.0455271 19.3425805,28.0455271 C19.7766598,28.0455271 20.2088988,28.0091373 20.6273356,27.9377483 C21.0423218,27.8665912 21.550933,27.7622892 21.6921756,27.7293761 C21.8331881,27.6966948 21.9886929,27.6538151 21.9886929,27.6538151 C22.0933596,27.6271601 22.0853083,27.5142821 22.0853083,27.5142821 L22.083008,23.6177906 C22.083008,22.7627458 21.8568819,22.1299803 21.4108407,21.7366458 C20.9673299,21.3453973 20.3137955,21.1474553 19.4688706,21.1474553 C19.1511899,21.1474553 18.6411985,21.1907985 18.3352497,21.2526844 C18.3352497,21.2526844 17.4121123,21.4327792 17.0316316,21.733169 C17.0316316,21.733169 16.9483583,21.7850882 16.9939055,21.9026019 L17.2931833,22.7129126 C17.3304493,22.81791 17.4318955,22.7819837 17.4318955,22.7819837 C17.4318955,22.7819837 17.4638706,22.7692357 17.5013665,22.7467528 C18.3147764,22.3014991 19.3439607,22.3147107 19.3439607,22.3147107 C19.8010437,22.3147107 20.1527698,22.4074236 20.3890175,22.590068 C20.6199744,22.7685404 20.7372931,23.037176 20.7372931,23.6050426 L20.7372931,23.7853691 C20.3742952,23.7325228 20.0402819,23.7019275 20.0402819,23.7019275" id="Fill-38" fill="#FFFFFF"></path>
            <path d="M54.148701,21.5069264 C54.1811361,21.4105049 54.1130453,21.3641485 54.0854409,21.3534865 C54.0132093,21.3256726 53.6536619,21.2491845 53.3766977,21.2318008 C52.8450829,21.1991195 52.5501758,21.289051 52.2860936,21.4088825 C52.0238518,21.5280185 51.7333154,21.720166 51.5715996,21.9398956 L51.5711395,21.4204716 C51.5711395,21.3490826 51.5207614,21.2913689 51.4499101,21.2913689 L50.365747,21.2913689 C50.2951258,21.2913689 50.2445177,21.3490826 50.2445177,21.4204716 L50.2445177,27.7768683 C50.2445177,27.8480254 50.3017968,27.9057392 50.3724181,27.9057392 L51.4839556,27.9057392 C51.5545768,27.9057392 51.611856,27.8480254 51.611856,27.7768683 L51.611856,24.6012195 C51.611856,24.1749719 51.6587835,23.7501151 51.7517183,23.4828701 C51.843503,23.2184066 51.9679528,23.0077165 52.1223075,22.8561309 C52.2764321,22.7052406 52.4524102,22.5990844 52.6447209,22.5397481 C52.8414023,22.4792529 53.058787,22.4593197 53.2122215,22.4593197 C53.4332868,22.4593197 53.6766656,22.5163381 53.6766656,22.5163381 C53.7583286,22.5256094 53.8034158,22.4753126 53.8310202,22.4013741 C53.9037119,22.206677 54.1095947,21.6228175 54.148701,21.5069264" id="Fill-40" fill="#FFFFFF"></path>
            <path d="M43.7200091,18.5613215 C43.5849776,18.5191371 43.462368,18.4910915 43.3020324,18.4611916 C43.1396265,18.4315235 42.9463956,18.4162258 42.7274007,18.4162258 C41.9627586,18.4162258 41.3598323,18.6343329 40.9363347,19.064289 C40.5158276,19.4912319 40.229892,20.1413812 40.0865791,20.9966577 L40.0348208,21.2849948 L39.0746475,21.2849948 C39.0746475,21.2849948 38.9575588,21.2808228 38.9329449,21.4092301 L38.7753697,22.2951019 C38.764328,22.3799342 38.8004438,22.4330124 38.9133918,22.4325488 L39.8475709,22.4325488 L38.8993595,27.765395 C38.8252877,28.1948876 38.7404042,28.5478919 38.6460891,28.8156005 C38.5531543,29.0798322 38.4627498,29.2777743 38.351182,29.4214793 C38.2432948,29.5605486 38.1409285,29.6629964 37.9642603,29.7227962 C37.818417,29.7719341 37.6504902,29.7948805 37.4666908,29.7948805 C37.3643245,29.7948805 37.2279127,29.7777286 37.1278467,29.7575636 C37.0273207,29.7373985 36.9748723,29.7144521 36.8994203,29.6824661 C36.8994203,29.6824661 36.7899228,29.6407453 36.7466759,29.7510737 C36.7114803,29.8417005 36.4625805,30.5319481 36.4326758,30.617244 C36.403001,30.7016127 36.4450977,30.7681342 36.4977762,30.7871404 C36.6224561,30.8316425 36.7149308,30.8608471 36.8844679,30.9011772 C37.1197955,30.956805 37.3178571,30.9602817 37.5039568,30.9602817 C37.8929489,30.9602817 38.2476655,30.9051175 38.5416524,30.7982659 C38.8377097,30.6902554 39.0953508,30.5029753 39.3233172,30.2489419 C39.5694565,29.97428 39.7245013,29.6875653 39.872875,29.2958533 C40.0196384,28.9073862 40.1447784,28.4257427 40.2446143,27.8641343 L41.1971964,22.4325488 L42.5900687,22.4325488 C42.5900687,22.4325488 42.7073875,22.4367209 42.7317714,22.3085453 L42.8893465,21.4224417 C42.9003883,21.3378412 42.8645025,21.2847631 42.7513245,21.2849948 L41.3993987,21.2849948 C41.4062998,21.2541678 41.4677196,20.7755374 41.6227643,20.3240256 C41.6890149,20.1316463 41.8134648,19.9763522 41.9192816,19.8695006 C42.0232582,19.764735 42.1426473,19.6901011 42.2733082,19.6474532 C42.4076496,19.6038781 42.560394,19.5818588 42.7274007,19.5818588 C42.854611,19.5818588 42.9797509,19.5966929 43.0745261,19.6170897 C43.205877,19.6451354 43.2569452,19.6599694 43.2909906,19.6703996 C43.4287826,19.712584 43.4471856,19.6717903 43.4743299,19.6045735 L43.7977615,18.7096622 C43.8308868,18.6139361 43.7496839,18.5729106 43.7200091,18.5613215" id="Fill-42" fill="#FFFFFF"></path>
            <path d="M24.8277831,27.7767987 C24.8277831,27.8479559 24.7771751,27.9059014 24.7065538,27.9059014 L23.5851248,27.9059014 C23.5142735,27.9059014 23.4636654,27.8479559 23.4636654,27.7767987 L23.4636654,18.6828218 C23.4636654,18.6116646 23.5142735,18.5537191 23.5851248,18.5537191 L24.7065538,18.5537191 C24.7771751,18.5537191 24.8277831,18.6116646 24.8277831,18.6828218 L24.8277831,27.7767987 Z" id="Fill-44" fill="#FFFFFF"></path>
        </g>
    </g>
</svg>