<?xml version="1.0" encoding="UTF-8"?>
<svg xmlns="http://www.w3.org/2000/svg" xmlns:xlink="http://www.w3.org/1999/xlink" width="180px" height="52px" viewBox="0 0 180 52" version="1.1">
    
    <title>Logo Header</title>
    <desc>Created with Sketch.</desc>
    <defs/>
    <g id="Symbols" stroke="none" stroke-width="1" fill="none" fill-rule="evenodd">
        <g id="Header-/-Header" transform="translate(-149.000000, -5.000000)">
            <g id="Logo/Header" transform="translate(149.000000, 5.195804)">
                <g id="Logo-Header">
                    <path d="M91.0899732,19.7782009 C91.0696974,20.7618458 91.2118589,24.0614785 91.0494215,25.2294551 C90.7849136,25.3731596 90.8051894,25.4140191 90.4390717,25.5370618 C89.950838,25.6394425 89.7884006,25.6190128 89.2186026,25.5779212 C88.8524849,25.1885957 88.3236995,24.7581785 88.0796978,24.0203868 C87.6119703,22.5448035 88.0796978,20.3725202 88.0999737,19.1430222 C88.1204799,18.5076114 88.2220897,16.4172791 88.2423656,15.3721129 C88.2829173,14.6956104 88.3442057,14.2039041 88.2423656,12.6052782 C87.3679687,12.78961 86.0253835,12.9948359 85.5371498,13.0356953 C84.4795788,12.78961 83.4422838,13.0356953 82.3236548,12.0520505 C82.5065985,11.5805417 82.6287145,11.4370694 83.096442,11.1501246 C84.5811886,10.2484308 87.8356961,9.85910527 89.7884006,9.63368183 C91.0494215,9.49020945 93.2053455,9.44911784 93.5917391,9.40825839 C94.6085279,9.38782867 95.1783259,9.55173078 95.9103309,9.71563289 C96.4393468,10.4534245 96.8257403,10.8223204 96.9884081,12.0520505 C96.4801289,12.3389953 96.3580129,12.4618058 95.4426035,12.4618058 C94.7714261,11.9494376 92.8797796,12.0724802 91.252641,12.2159526 C91.2934232,13.1380761 91.2729169,14.040002 91.2118589,14.7775615 C91.1713071,15.9049109 91.1102491,18.8354156 91.0899732,19.7782009" id="Fill-1" fill="#129ED9"/>
                    <path d="M102.90781,21.3971638 C103.11149,21.1513106 103.31471,20.946549 103.558712,20.9258872 C103.985887,20.9258872 104.189337,21.1924022 104.108003,21.7864893 C103.924829,23.1188324 102.724866,24.4302814 101.484121,25.1065517 C100.62977,25.4754476 98.4941219,25.086122 98.1280042,24.5326622 C96.8874896,22.5858023 97.7618865,19.2248804 98.1485105,16.970646 C97.8434508,17.2573586 96.9685931,17.0319352 96.8874896,16.786082 C96.7043155,16.970646 96.0128623,19.880721 95.7280785,20.680034 C95.260351,21.9710533 95.1787867,22.4423299 94.6297254,22.8112257 C94.3449416,23.0162194 92.8804708,23.405545 92.7991369,22.6677533 C93.3889804,21.9917152 93.8567079,20.9667466 94.6092191,17.8927695 C94.8534512,16.8680331 94.6092191,13.6299217 95.5043527,13.5479707 C96.8467074,13.609492 96.9685931,14.4498966 97.8026686,14.5931368 C99.2671394,14.83899 99.6740393,13.8144857 100.792438,13.7733941 C101.423063,13.7529644 101.931573,14.8596519 101.850239,15.6383029 C101.789412,16.2532841 101.524673,16.6221799 101.300947,17.31888 C100.83322,18.7740335 100.32471,20.8439361 100.507884,22.2375683 C100.62977,23.1596918 101.463615,22.8318876 101.972125,22.4014705 C102.338242,22.0938638 102.582475,21.7660596 102.90781,21.3971638" id="Fill-3" fill="#129ED9"/>
                    <path d="M108.430611,17.462422 C108.430611,17.1343856 108.226931,16.6015877 108.003436,16.6015877 C106.762691,16.663109 105.318496,18.8149626 105.318496,21.1513802 C105.318496,21.7046079 105.379554,21.9096016 105.60328,21.9096016 C106.986417,21.9096016 108.247437,19.4092819 108.430611,17.5443731 L108.430611,17.462422 Z M112.193398,24.6762042 C111.6236,24.963149 110.972929,25.0655298 110.281476,25.0655298 C108.918615,25.0655298 108.105045,23.897321 108.023712,22.9956272 C107.2712,23.8360318 105.766178,24.8811979 104.566215,24.8811979 C102.857512,24.8811979 102.389554,22.3400188 102.389554,21.1102886 C102.389554,17.5648028 104.566215,13.8554148 107.820492,13.8554148 C108.471394,13.8554148 109.447631,14.3884449 109.589792,14.7366788 C109.65085,14.5316851 110.26097,14.3473533 110.484926,14.3473533 C110.932147,14.3473533 111.603555,14.4701638 111.603555,14.7982002 C111.603555,15.5359918 110.749203,19.142999 110.749203,20.9668163 C110.749203,22.2989272 111.277989,22.6473933 111.583279,22.6473933 C111.786498,22.6473933 112.010224,22.5243506 112.193398,22.4015401 C112.518734,22.1350251 112.803518,21.7661292 113.129083,21.3972334 C113.332303,21.1513802 113.535753,20.9463865 113.779985,20.9257246 C114.20693,20.9257246 114.41038,21.1922397 114.329046,21.786559 C114.186654,22.8932464 113.149129,24.1227444 112.193398,24.6762042 Z" id="Fill-5" fill="#129ED9"/>
                    <path d="M115.478527,13.5275642 C114.644682,13.5275642 114.339622,12.9330127 114.339622,12.5028277 C114.339622,11.683085 114.888453,11.2529 115.600643,11.2529 C116.210762,11.2529 116.698996,11.9085085 116.698996,12.400447 C116.698996,12.9741043 116.149704,13.5275642 115.478527,13.5275642 M116.536328,24.6761578 C115.661701,25.1680963 114.542611,25.4959005 113.627663,24.7581089 C113.119383,24.3483536 112.671701,23.344279 112.570092,22.4423531 C112.386918,20.8232974 113.078601,15.5359454 113.89194,14.7981537 C114.156678,14.7366324 115.966761,14.8188156 116.088416,15.1466198 C116.495546,15.7409391 115.254801,20.434204 115.254801,21.9299849 C115.376917,22.6269171 115.722759,22.7703895 116.516052,22.4014937 C116.820882,22.2580213 117.125941,21.7660828 117.451507,21.397187 C117.654727,21.1513338 117.858407,20.9465723 118.102409,20.9259104 C118.529354,20.9259104 118.75331,21.1924254 118.671746,21.7865125 C118.529354,22.8932 117.492059,24.1229301 116.536328,24.6761578" id="Fill-7" fill="#129ED9"/>
                    <path d="M120.793431,12.5028045 C120.14276,14.2038113 119.715354,16.9499841 119.898528,18.5690398 C120.895272,17.3599716 121.973349,14.7777008 122.400525,12.379994 C122.563192,11.4576384 122.441076,10.1050977 122.197075,9.96162535 C121.749393,10.432902 121.220607,11.4576384 120.793431,12.5028045 M123.43782,24.6967965 C122.705354,25.1887349 121.749393,25.5165392 120.54943,25.537201 C117.091933,25.5573986 117.091933,20.6593721 117.213819,17.5443034 C117.335704,14.1629518 118.57668,10.6583254 119.93931,8.81384627 C120.54943,7.97367384 121.627277,7.3997843 122.542686,7.37935457 C123.763155,7.35869269 124.454839,9.10079104 124.332492,11.8265342 C124.149549,15.7204862 122.359742,19.1018378 120.264646,21.3152127 C120.44782,22.2579981 120.691822,23.0981705 121.769668,23.0777408 C122.074959,23.0777408 122.949355,22.8727471 123.457635,22.4014705 C123.783661,22.1349554 124.068215,21.7660596 124.393781,21.3971638 C124.597,21.1513106 124.800681,20.946549 125.044452,20.9258872 C125.471628,20.9258872 125.675077,21.1924022 125.593744,21.7864893 C125.451352,22.9138387 124.393781,24.0409559 123.43782,24.6967965" id="Fill-9" fill="#129ED9"/>
                    <path d="M129.670207,17.5443731 C128.856638,17.5443731 127.188717,18.5280179 127.188717,20.4955397 C127.188717,21.86851 127.839619,22.2989272 128.714246,22.2989272 C130.219269,22.2989272 131.134448,20.4955397 131.134448,19.306669 C131.134448,18.343686 130.585617,17.5443731 129.670207,17.5443731 M133.270326,24.8403385 C132.578643,24.8403385 131.643188,24.5531616 130.97178,24.081885 C130.239775,24.5327318 129.405699,24.7992469 128.449738,24.7992469 C127.615893,24.7992469 126.964991,24.4918724 126.476758,24.0205958 C126.476758,24.266449 126.476758,24.5123021 126.497264,24.7377256 C126.029306,25.0042406 125.90719,25.1272833 125.602361,25.1272833 C125.459969,25.1272833 125.174955,25.1066214 124.890401,25.0451001 C124.219224,23.8360318 124.44295,21.4380929 124.503777,19.7986075 C124.666445,17.2574283 124.931183,13.5276106 125.093851,11.4166164 C125.277025,9.16238201 125.378405,7.89179243 126.782048,7.89179243 C127.778561,7.89179243 128.408956,8.11721587 128.246288,8.69087325 C127.636169,10.9453398 127.391937,13.1995742 127.188717,15.2694768 L127.025819,16.765722 C128.103896,15.6179429 129.385423,15.249047 130.381936,15.249047 C132.415975,15.249047 133.636444,16.5196366 133.636444,18.6306308 C133.636444,20.0446928 133.229544,21.4178953 132.517585,22.5243506 C132.680252,22.667823 132.84315,22.749774 133.04637,22.749774 C134.348403,22.749774 134.754842,20.987246 135.548136,20.9257246 C135.914254,20.9257246 136.117703,21.1307184 136.117703,21.5611355 C136.117703,21.6226569 136.097428,21.7046079 136.097428,21.786559 C135.93476,23.1186699 134.368679,24.8403385 133.270326,24.8403385" id="Fill-11" fill="#129ED9"/>
                    <path d="M138.150267,12.5028045 C137.499366,14.2038113 137.07196,16.9499841 137.255134,18.5690398 C138.251877,17.3599716 139.329954,14.7777008 139.75713,12.379994 C139.919798,11.4576384 139.797682,10.1050977 139.55368,9.96162535 C139.105998,10.432902 138.577443,11.4576384 138.150267,12.5028045 M140.794425,24.6967965 C140.061959,25.1887349 139.105998,25.5165392 137.905805,25.537201 C134.448539,25.5573986 134.448539,20.6593721 134.570424,17.5443034 C134.69254,14.1629518 135.933055,10.6583254 137.295916,8.81384627 C137.905805,7.97367384 138.984112,7.3997843 139.899522,7.37935457 C141.119761,7.35869269 141.811214,9.10079104 141.689098,11.8265342 C141.505924,15.7204862 139.716348,19.1018378 137.621251,21.3152127 C137.804425,22.2579981 138.048657,23.0981705 139.126274,23.0777408 C139.431794,23.0777408 140.30573,22.8727471 140.814701,22.4014705 C141.140267,22.1349554 141.42482,21.7660596 141.750386,21.3971638 C141.953836,21.1513106 142.157056,20.946549 142.401288,20.9258872 C142.828233,20.9258872 143.031683,21.1924022 142.950349,21.7864893 C142.807957,22.9138387 141.750386,24.0409559 140.794425,24.6967965" id="Fill-13" fill="#129ED9"/>
                    <path d="M147.340029,17.462422 C147.340029,17.1343856 147.136579,16.6015877 146.912853,16.6015877 C145.672338,16.663109 144.228144,18.8149626 144.228144,21.1513802 C144.228144,21.7046079 144.289202,21.9096016 144.512697,21.9096016 C145.895834,21.9096016 147.156855,19.4092819 147.340029,17.5443731 L147.340029,17.462422 Z M151.103046,24.6762042 C150.533248,24.963149 149.882346,25.0655298 149.190893,25.0655298 C147.828032,25.0655298 147.014693,23.897321 146.933359,22.9956272 C146.180848,23.8360318 144.675595,24.8811979 143.475863,24.8811979 C141.76716,24.8811979 141.299202,22.3400188 141.299202,21.1102886 C141.299202,17.5648028 143.475863,13.8554148 146.73014,13.8554148 C147.380811,13.8554148 148.357048,14.3884449 148.49944,14.7366788 C148.560498,14.5316851 149.170617,14.3473533 149.394343,14.3473533 C149.841564,14.3473533 150.512972,14.4701638 150.512972,14.7982002 C150.512972,15.5359918 149.658621,19.142999 149.658621,20.9668163 C149.658621,22.2989272 150.187636,22.6473933 150.492696,22.6473933 C150.695685,22.6473933 150.919872,22.5243506 151.103046,22.4015401 C151.428381,22.1350251 151.712935,21.7661292 152.038731,21.3972334 C152.241951,21.1513802 152.44517,20.9463865 152.689633,20.9257246 C153.116348,20.9257246 153.319798,21.1922397 153.238694,21.786559 C153.096072,22.8932464 152.058546,24.1227444 151.103046,24.6762042 Z" id="Fill-15" fill="#129ED9"/>
                    <path d="M161.885408,23.2006906 C161.173218,23.6311077 154.257994,25.454925 153.342585,25.5166785 C152.71219,25.5575379 152.30529,23.9591441 152.20368,23.2826416 C152.122346,22.7702734 156.65815,16.8475105 156.65815,16.8475105 C156.65815,16.8475105 152.569567,17.5237808 152.10184,17.5237808 C151.634112,17.5237808 151.247488,17.0116448 151.247488,16.6631787 C151.247488,16.3147126 151.247488,15.6384422 151.654619,15.3719272 C152.061058,15.1056443 158.6309,14.1219995 159.403688,14.3267611 C160.176705,14.5317548 160.095141,15.740823 160.156429,16.3762339 C160.217487,17.0116448 155.966467,22.7087521 155.966467,22.7087521 C156.983486,22.6063713 160.583605,21.8685797 161.681728,21.4177328 C162.658195,21.3562115 162.922703,21.4585922 162.922703,21.9916223 C162.922703,22.5244203 162.231019,22.9956969 161.885408,23.2006906" id="Fill-17" fill="#129ED9"/>
                    <path d="M165.622112,15.884249 C164.096584,15.6999171 163.568029,18.9584582 163.750972,19.9625328 C164.096584,19.6347286 164.767991,18.9173666 165.276271,18.0567645 C165.601606,17.4828749 165.866345,16.8474641 165.906896,16.2122854 C165.845838,15.9868619 165.723722,15.884249 165.622112,15.884249 M166.09007,25.1681659 C163.445913,25.2090254 161.12686,23.221306 161.004974,20.2290478 C160.883089,17.1344088 162.327053,13.8962975 165.744229,13.8143464 C167.025756,13.7939167 168.184936,14.8186531 168.184936,16.3966172 C168.184936,17.6878687 167.676427,18.4256603 166.862857,19.4708264 C166.171404,20.3314286 165.235719,21.356165 164.747485,21.7250608 C165.093327,22.5448035 165.805287,22.954791 166.70019,22.9343613 C168.063051,22.9343613 168.77501,22.2785207 169.568073,21.3972566 C169.771293,21.1511713 169.974973,20.9464097 170.218744,20.9257479 C170.64615,20.9257479 170.910428,21.2126926 170.768036,21.7865822 C170.198468,24.1023379 168.16466,25.1270743 166.09007,25.1681659" id="Fill-19" fill="#129ED9"/>
                    <path d="M178.334806,21.3971638 C178.538256,21.1513106 178.741476,20.946549 178.985708,20.9258872 C179.412653,20.9258872 179.616334,21.1924022 179.534769,21.7864893 C179.351826,23.1188324 178.151632,24.4302814 176.911118,25.1065517 C176.056536,25.4754476 173.921118,25.086122 173.55477,24.5326622 C172.314256,22.5858023 173.188652,19.2248804 173.575507,16.970646 C173.270217,17.2573586 172.395589,17.0319352 172.314256,16.786082 C172.131081,16.970646 171.439628,19.880721 171.155075,20.680034 C170.687117,21.9710533 170.605783,22.4423299 170.056491,22.8112257 C169.771938,23.0162194 168.307237,23.405545 168.225903,22.6677533 C168.815746,21.9917152 169.283474,20.9667466 170.036215,17.8927695 C170.280217,16.8680331 170.036215,13.6299217 170.931119,13.5479707 C172.273473,13.609492 172.395589,14.4498966 173.229665,14.5931368 C174.693905,14.83899 175.100805,13.8144857 176.219434,13.7733941 C176.85006,13.7529644 177.358339,14.8596519 177.277005,15.6383029 C177.216177,16.2532841 176.95167,16.6221799 176.727713,17.31888 C176.260216,18.7740335 175.751476,20.8439361 175.93465,22.2375683 C176.056536,23.1596918 176.890151,22.8318876 177.399121,22.4014705 C177.765239,22.0938638 178.00924,21.7660596 178.334806,21.3971638" id="Fill-21" fill="#129ED9"/>
                    <path d="M30.5994965,5.8673777 C32.9525422,3.39750595 36.2284952,1.86472987 39.8520336,1.86472987 C44.6676224,1.86472987 48.8699333,4.57055596 51.1070404,8.58803786 C53.052461,7.71236449 55.2046845,7.22515818 57.469166,7.22515818 C66.1558128,7.22515818 73.198157,14.3828261 73.198157,23.2128031 C73.198157,32.04278 66.1558128,39.200448 57.469166,39.200448 C56.4086968,39.200448 55.3726113,39.0931328 54.3705714,38.889628 C52.4003068,42.4303338 48.6447273,44.823022 44.3349893,44.823022 C42.5310413,44.823022 40.8243989,44.4037279 39.3047763,43.6564619 C37.3075974,48.3913099 32.6528043,51.7108954 27.2294585,51.7108954 C21.5804467,51.7108954 16.7657781,48.1099263 14.9185832,43.059159 C14.1106943,43.2311415 13.2735906,43.3217683 12.4155536,43.3217683 C5.68996996,43.3217683 0.23809962,37.7712786 0.23809962,30.9239671 C0.23809962,26.3349101 2.68730061,22.3287855 6.32740172,20.1847996 C5.57794208,18.4468963 5.16157561,16.5298252 5.16157561,14.5144785 C5.16157561,6.63944441 11.5059884,0.255233856 19.3322978,0.255233856 C23.9270513,0.255233856 28.0104332,2.45623819 30.5994965,5.8673777" id="Fill-23" fill="#00A1E0"/>
                    <path d="M10.8054346,26.938842 C10.7594273,27.0596005 10.8217672,27.084633 10.8367196,27.105957 C10.9733614,27.2058551 11.1127637,27.2781712 11.2533161,27.359295 C11.9972549,27.756338 12.7002471,27.8726927 13.4347543,27.8726927 C14.9313733,27.8726927 15.8611817,27.0709579 15.8611817,25.7799307 L15.8611817,25.7544346 C15.8611817,24.560756 14.8117542,24.1268596 13.8281171,23.8139536 L13.6997567,23.7717692 C12.9578882,23.5293249 12.317466,23.3197938 12.317466,22.8272565 L12.317466,22.8017604 C12.317466,22.3803803 12.6919658,22.0704874 13.2718883,22.0704874 C13.9164512,22.0704874 14.6806332,22.2865085 15.1733719,22.5604751 C15.1733719,22.5604751 15.3185251,22.6550423 15.3714335,22.5136551 C15.3999581,22.4376305 15.6495479,21.7617534 15.6755421,21.6885102 C15.7038366,21.6090089 15.6541487,21.5496727 15.6028505,21.5183821 C15.0401806,21.1734901 14.2631166,20.9384628 13.4586782,20.9384628 L13.3093843,20.9389264 C11.9397457,20.9389264 10.983023,21.7731108 10.983023,22.9679483 L10.983023,22.9934444 C10.983023,24.2522538 12.0379714,24.6615813 13.0266692,24.9462099 L13.1853945,24.9953477 C13.9054095,25.2180905 14.5267387,25.410238 14.5267387,25.9206225 L14.5267387,25.9461186 C14.5267387,26.4133916 14.1225641,26.7603696 13.4720203,26.7603696 C13.21967,26.7603696 12.4147715,26.7559658 11.5445426,26.2013108 C11.4391858,26.1398885 11.3786861,26.0951546 11.2977132,26.0453214 C11.2546963,26.0186664 11.1474992,25.9716146 11.1010318,26.1132336 L10.8054346,26.938842 Z" id="Fill-26" fill="#FFFFFF"/>
                    <path d="M32.7153053,26.938842 C32.669298,27.0596005 32.7316379,27.084633 32.7465903,27.105957 C32.8832321,27.2058551 33.0226344,27.2781712 33.1631868,27.359295 C33.9071256,27.756338 34.6101178,27.8726927 35.3446251,27.8726927 C36.841244,27.8726927 37.7710524,27.0709579 37.7710524,25.7799307 L37.7710524,25.7544346 C37.7710524,24.560756 36.7216249,24.1268596 35.7379879,23.8139536 L35.6096274,23.7717692 C34.8677589,23.5293249 34.2273367,23.3197938 34.2273367,22.8272565 L34.2273367,22.8017604 C34.2273367,22.3803803 34.6020665,22.0704874 35.1817591,22.0704874 C35.826322,22.0704874 36.590504,22.2865085 37.0832426,22.5604751 C37.0832426,22.5604751 37.2283958,22.6550423 37.2813042,22.5136551 C37.3098288,22.4376305 37.5591886,21.7617534 37.5854128,21.6885102 C37.6137073,21.6090089 37.5640194,21.5496727 37.5129512,21.5183821 C36.9500514,21.1734901 36.1729873,20.9384628 35.3687789,20.9384628 L35.219255,20.9389264 C33.8496164,20.9389264 32.8928937,21.7731108 32.8928937,22.9679483 L32.8928937,22.9934444 C32.8928937,24.2522538 33.947612,24.6615813 34.9365399,24.9462099 L35.0952653,24.9953477 C35.8150502,25.2180905 36.4366094,25.410238 36.4366094,25.9206225 L36.4366094,25.9461186 C36.4366094,26.4133916 36.0326649,26.7603696 35.382121,26.7603696 C35.1295407,26.7603696 34.3244122,26.7559658 33.4541833,26.2013108 C33.3488264,26.1398885 33.2871766,26.0972406 33.2075839,26.0453214 C33.1804396,26.0277059 33.0541494,25.9783363 33.0109025,26.1132336 L32.7153053,26.938842 Z" id="Fill-28" fill="#FFFFFF"/>
                    <path d="M47.6726381,24.4096108 C47.6726381,25.1390296 47.5376066,25.7147767 47.2716841,26.1206274 C47.008062,26.5232332 46.6100985,26.7188574 46.0550199,26.7188574 C45.4997112,26.7188574 45.103588,26.523465 44.8443366,26.1208592 C44.5825548,25.7150085 44.4495936,25.1390296 44.4495936,24.4096108 C44.4495936,23.6804238 44.5823248,23.1069945 44.8441066,22.705084 C45.103588,22.3064186 45.4997112,22.1131122 46.0550199,22.1131122 C46.6100985,22.1131122 47.008062,22.3068821 47.2719141,22.7053158 C47.5378366,23.1069945 47.6726381,23.6804238 47.6726381,24.4096108 M48.9221976,23.0569295 C48.799128,22.6387943 48.6079674,22.2707241 48.3535468,21.9633808 C48.0986661,21.655574 47.7761546,21.4082623 47.3940636,21.2286311 C47.0124327,21.0489998 46.5617908,20.9581412 46.0550199,20.9581412 C45.548249,20.9581412 45.097377,21.0489998 44.715516,21.2286311 C44.3336551,21.4082623 44.0109136,21.655574 43.7558028,21.9638444 C43.5016123,22.2716512 43.3102217,22.6394897 43.1873821,23.0569295 C43.0656927,23.4722833 43.0038128,23.9272719 43.0038128,24.4096108 C43.0038128,24.8924132 43.0656927,25.3474018 43.1873821,25.762292 C43.3102217,26.1797319 43.5011522,26.5475703 43.7560329,26.8558407 C44.0113736,27.1643429 44.3345752,27.4095686 44.7159761,27.584796 C45.0980671,27.7600233 45.548479,27.8487959 46.0550199,27.8487959 C46.5613307,27.8487959 47.0115126,27.7600233 47.3936036,27.584796 C47.7752345,27.4095686 48.0984361,27.1643429 48.3535468,26.8558407 C48.6079674,26.5487293 48.799128,26.180659 48.9221976,25.762292 C49.0441171,25.3467065 49.1057669,24.8917179 49.1057669,24.4096108 C49.1057669,23.9277355 49.0441171,23.4727469 48.9221976,23.0569295" id="Fill-30" fill="#FFFFFF"/>
                    <path d="M59.1806623,26.5238358 C59.1394857,26.4014548 59.0214769,26.4475795 59.0214769,26.4475795 C58.8395178,26.5178095 58.646517,26.582245 58.4401741,26.6149263 C58.2319908,26.6478393 58.0019541,26.6642959 57.7555848,26.6642959 C57.1515083,26.6642959 56.6705015,26.4828104 56.3268267,26.1249386 C55.9822317,25.7663714 55.7878506,25.1873793 55.790151,24.4039553 C55.7924514,23.6916884 55.9633687,23.155576 56.2697776,22.7464804 C56.5741162,22.3401661 57.0381002,22.1320256 57.6555188,22.1320256 C58.1710311,22.1320256 58.5643939,22.1920572 58.9763897,22.322087 C58.9763897,22.322087 59.0741553,22.3654303 59.1210828,22.2351687 C59.2308103,21.9294479 59.3120132,21.7113408 59.4284118,21.3752565 C59.4617671,21.2795304 59.3803341,21.238505 59.3506594,21.2266841 C59.1889436,21.1634075 58.8063925,21.0591055 58.5174664,21.0150669 C58.2474033,20.9738096 57.9317929,20.9515585 57.5800667,20.9515585 C57.055353,20.9515585 56.5874583,21.0424172 56.1876545,21.2215849 C55.7883107,21.4009843 55.4496967,21.648296 55.1814738,21.9561029 C54.9134811,22.2641415 54.7089784,22.6319799 54.5737168,23.0494198 C54.4384552,23.4650054 54.3699043,23.9211528 54.3699043,24.4044189 C54.3699043,25.4488297 54.6496289,26.2920536 55.201027,26.9099851 C55.7542653,27.5302344 56.5844678,27.8449947 57.6677107,27.8449947 C58.3076729,27.8449947 58.9641977,27.7147331 59.4366931,27.5272212 C59.4366931,27.5272212 59.5270976,27.4836462 59.4875313,27.3777217 L59.1806623,26.5238358 Z" id="Fill-32" fill="#FFFFFF"/>
                    <path d="M61.3664482,23.7105323 C61.4262578,23.3049134 61.5366754,22.9681337 61.7080527,22.7050609 C61.9675342,22.3063954 62.3620472,22.0868976 62.9173558,22.0868976 C63.4724344,22.0868976 63.8386529,22.3068589 64.102505,22.7055244 C64.2766428,22.9683655 64.352785,23.3195156 64.3826897,23.7109959 L61.3664482,23.7105323 Z M65.5722096,22.8197931 C65.4661627,22.4160284 65.2034608,22.008787 65.0316233,21.8222022 C64.7592598,21.5271434 64.4928773,21.3201619 64.2283351,21.2058932 C63.88351,21.0566254 63.469674,20.958118 63.0171917,20.958118 C62.4892575,20.958118 62.0098609,21.0478177 61.6208688,21.231621 C61.2316467,21.4156562 60.9040744,21.6676035 60.6473534,21.980046 C60.3904024,22.2924884 60.1976316,22.6647308 60.074562,23.0865745 C59.9514923,23.5061004 59.8891524,23.9636385 59.8891524,24.4462092 C59.8891524,24.9375876 59.9535627,25.3958211 60.081003,25.8067711 C60.2093635,26.2221249 60.4154764,26.5867184 60.6935908,26.8898896 C60.9717052,27.1942197 61.3294123,27.4331872 61.7572806,27.5996068 C62.1826185,27.7655629 62.699281,27.8515542 63.2920856,27.8496999 C64.5138107,27.8459914 65.1565333,27.5713294 65.4219956,27.4234523 C65.4689231,27.3972609 65.5133202,27.351368 65.4578814,27.2199475 L65.1811472,26.4397684 C65.1388204,26.3231819 65.0219618,26.3658299 65.0219618,26.3658299 C64.7190034,26.4794032 64.2895249,26.682908 63.2856446,26.680822 C62.6305,26.6796631 62.1442024,26.4845024 61.8389436,26.1794769 C61.5267838,25.8677298 61.3733493,25.4092645 61.3473552,24.7623602 L65.5754301,24.7656052 C65.5754301,24.7656052 65.6867679,24.7642145 65.6982697,24.6545815 C65.7031005,24.6093839 65.843653,23.7793716 65.5722096,22.8197931 Z" id="Fill-34" fill="#FFFFFF"/>
                    <path d="M27.4983715,23.7105323 C27.558181,23.3049134 27.6685987,22.9681337 27.839976,22.7050609 C28.0994574,22.3063954 28.4939704,22.0868976 29.0492791,22.0868976 C29.6045877,22.0868976 29.9705761,22.3068589 30.2346583,22.7055244 C30.4085661,22.9683655 30.4847082,23.3195156 30.514613,23.7109959 L27.4983715,23.7105323 Z M31.7041329,22.8197931 C31.5978559,22.4160284 31.3356141,22.008787 31.1633166,21.8222022 C30.8911831,21.5271434 30.6248006,21.3201619 30.3602584,21.2058932 C30.0154333,21.0566254 29.6015972,20.958118 29.149115,20.958118 C28.6211807,20.958118 28.1417842,21.0478177 27.7527921,21.231621 C27.36357,21.4156562 27.0359977,21.6676035 26.7790466,21.980046 C26.5220956,22.2924884 26.3295549,22.6647308 26.2064852,23.0865745 C26.0834156,23.5061004 26.0210756,23.9636385 26.0210756,24.4462092 C26.0210756,24.9375876 26.0852559,25.3958211 26.2129263,25.8067711 C26.3412868,26.2221249 26.5473997,26.5867184 26.8255141,26.8898896 C27.1036285,27.1942197 27.4613356,27.4331872 27.8892039,27.5996068 C28.3147718,27.7655629 28.8309742,27.8515542 29.4240089,27.8496999 C30.6457339,27.8459914 31.2884565,27.5713294 31.5539189,27.4234523 C31.6006164,27.3972609 31.6450135,27.351368 31.5895746,27.2199475 L31.3130705,26.4397684 C31.2707437,26.3231819 31.153885,26.3658299 31.153885,26.3658299 C30.8509267,26.4794032 30.4216782,26.682908 29.4175679,26.680822 C28.7624233,26.6796631 28.2761256,26.4845024 27.9708669,26.1794769 C27.6587071,25.8677298 27.5052726,25.4092645 27.4792784,24.7623602 L31.7073534,24.7656052 C31.7073534,24.7656052 31.8186912,24.7642145 31.830193,24.6545815 C31.8350238,24.6093839 31.9755762,23.7793716 31.7041329,22.8197931 Z" id="Fill-36" fill="#FFFFFF"/>
                    <path d="M18.3575632,26.5005185 C18.1919368,26.3672437 18.1689331,26.3343307 18.1134943,26.2478759 C18.0297609,26.1173825 17.9869741,25.9310295 17.9869741,25.6936845 C17.9869741,25.3195879 18.1102738,25.0497934 18.3642343,24.8687714 C18.3619339,24.8696986 18.7290725,24.549839 19.5910201,24.5609646 C20.1969369,24.5688452 20.7391334,24.6592403 20.7391334,24.6592403 L20.7391334,26.5964764 L20.7393635,26.5964764 C20.7393635,26.5964764 20.2019977,26.7128311 19.5972311,26.7494527 C18.7368938,26.8016037 18.3550328,26.4998232 18.3575632,26.5005185 M20.0402819,23.5061235 C19.8686745,23.4936073 19.646459,23.4871174 19.3800765,23.4871174 C19.0179987,23.4871174 18.6676527,23.5325467 18.3387002,23.6217829 C18.0083675,23.7114826 17.7113901,23.8503202 17.4558193,24.0343553 C17.1988683,24.2202447 16.9922953,24.4564308 16.8425414,24.7371191 C16.6923274,25.0180392 16.6161852,25.3485607 16.6161852,25.7189488 C16.6161852,26.0965221 16.6815157,26.4242622 16.8101062,26.6917389 C16.9391568,26.9608381 17.1247964,27.1852033 17.3615042,27.3585765 C17.5966017,27.5312543 17.886448,27.6575756 18.2229917,27.7345273 C18.5549347,27.8110154 18.9317349,27.8497231 19.3425805,27.8497231 C19.7766598,27.8497231 20.2088988,27.8133333 20.6273356,27.7419443 C21.0423218,27.6707872 21.550933,27.5664852 21.6921756,27.5335721 C21.8331881,27.5008908 21.9886929,27.4580111 21.9886929,27.4580111 C22.0933596,27.4313561 22.0853083,27.3184781 22.0853083,27.3184781 L22.083008,23.4219866 C22.083008,22.5669418 21.8568819,21.9341763 21.4108407,21.5408418 C20.9673299,21.1495933 20.3137955,20.9516513 19.4688706,20.9516513 C19.1511899,20.9516513 18.6411985,20.9949945 18.3352497,21.0568804 C18.3352497,21.0568804 17.4121123,21.2369752 17.0316316,21.537365 C17.0316316,21.537365 16.9483583,21.5892842 16.9939055,21.7067979 L17.2931833,22.5171086 C17.3304493,22.622106 17.4318955,22.5861797 17.4318955,22.5861797 C17.4318955,22.5861797 17.4638706,22.5734317 17.5013665,22.5509488 C18.3147764,22.1056951 19.3439607,22.1189067 19.3439607,22.1189067 C19.8010437,22.1189067 20.1527698,22.2116196 20.3890175,22.394264 C20.6199744,22.5727364 20.7372931,22.841372 20.7372931,23.4092386 L20.7372931,23.5895651 C20.3742952,23.5367188 20.0402819,23.5061235 20.0402819,23.5061235" id="Fill-38" fill="#FFFFFF"/>
                    <path d="M54.148701,21.3111224 C54.1811361,21.2147009 54.1130453,21.1683445 54.0854409,21.1576825 C54.0132093,21.1298686 53.6536619,21.0533805 53.3766977,21.0359968 C52.8450829,21.0033155 52.5501758,21.093247 52.2860936,21.2130785 C52.0238518,21.3322145 51.7333154,21.524362 51.5715996,21.7440916 L51.5711395,21.2246676 C51.5711395,21.1532786 51.5207614,21.0955649 51.4499101,21.0955649 L50.365747,21.0955649 C50.2951258,21.0955649 50.2445177,21.1532786 50.2445177,21.2246676 L50.2445177,27.5810643 C50.2445177,27.6522214 50.3017968,27.7099352 50.3724181,27.7099352 L51.4839556,27.7099352 C51.5545768,27.7099352 51.611856,27.6522214 51.611856,27.5810643 L51.611856,24.4054155 C51.611856,23.9791679 51.6587835,23.5543111 51.7517183,23.2870661 C51.843503,23.0226026 51.9679528,22.8119125 52.1223075,22.6603269 C52.2764321,22.5094366 52.4524102,22.4032804 52.6447209,22.3439441 C52.8414023,22.2834489 53.058787,22.2635157 53.2122215,22.2635157 C53.4332868,22.2635157 53.6766656,22.3205341 53.6766656,22.3205341 C53.7583286,22.3298054 53.8034158,22.2795086 53.8310202,22.2055701 C53.9037119,22.010873 54.1095947,21.4270135 54.148701,21.3111224" id="Fill-40" fill="#FFFFFF"/>
                    <path d="M43.7200091,18.3655175 C43.5849776,18.3233331 43.462368,18.2952875 43.3020324,18.2653876 C43.1396265,18.2357195 42.9463956,18.2204218 42.7274007,18.2204218 C41.9627586,18.2204218 41.3598323,18.4385289 40.9363347,18.868485 C40.5158276,19.2954279 40.229892,19.9455772 40.0865791,20.8008537 L40.0348208,21.0891908 L39.0746475,21.0891908 C39.0746475,21.0891908 38.9575588,21.0850188 38.9329449,21.2134261 L38.7753697,22.0992979 C38.764328,22.1841302 38.8004438,22.2372084 38.9133918,22.2367448 L39.8475709,22.2367448 L38.8993595,27.569591 C38.8252877,27.9990836 38.7404042,28.3520879 38.6460891,28.6197965 C38.5531543,28.8840282 38.4627498,29.0819703 38.351182,29.2256753 C38.2432948,29.3647446 38.1409285,29.4671924 37.9642603,29.5269922 C37.818417,29.5761301 37.6504902,29.5990765 37.4666908,29.5990765 C37.3643245,29.5990765 37.2279127,29.5819246 37.1278467,29.5617596 C37.0273207,29.5415945 36.9748723,29.5186481 36.8994203,29.4866621 C36.8994203,29.4866621 36.7899228,29.4449413 36.7466759,29.5552697 C36.7114803,29.6458965 36.4625805,30.3361441 36.4326758,30.42144 C36.403001,30.5058087 36.4450977,30.5723302 36.4977762,30.5913364 C36.6224561,30.6358385 36.7149308,30.6650431 36.8844679,30.7053732 C37.1197955,30.761001 37.3178571,30.7644777 37.5039568,30.7644777 C37.8929489,30.7644777 38.2476655,30.7093135 38.5416524,30.6024619 C38.8377097,30.4944514 39.0953508,30.3071713 39.3233172,30.0531379 C39.5694565,29.778476 39.7245013,29.4917613 39.872875,29.1000493 C40.0196384,28.7115822 40.1447784,28.2299387 40.2446143,27.6683303 L41.1971964,22.2367448 L42.5900687,22.2367448 C42.5900687,22.2367448 42.7073875,22.2409169 42.7317714,22.1127413 L42.8893465,21.2266377 C42.9003883,21.1420372 42.8645025,21.0889591 42.7513245,21.0891908 L41.3993987,21.0891908 C41.4062998,21.0583638 41.4677196,20.5797334 41.6227643,20.1282216 C41.6890149,19.9358423 41.8134648,19.7805482 41.9192816,19.6736966 C42.0232582,19.568931 42.1426473,19.4942971 42.2733082,19.4516492 C42.4076496,19.4080741 42.560394,19.3860548 42.7274007,19.3860548 C42.854611,19.3860548 42.9797509,19.4008889 43.0745261,19.4212857 C43.205877,19.4493314 43.2569452,19.4641654 43.2909906,19.4745956 C43.4287826,19.51678 43.4471856,19.4759863 43.4743299,19.4087695 L43.7977615,18.5138582 C43.8308868,18.4181321 43.7496839,18.3771066 43.7200091,18.3655175" id="Fill-42" fill="#FFFFFF"/>
                    <path d="M24.8277831,27.5809947 C24.8277831,27.6521519 24.7771751,27.7100974 24.7065538,27.7100974 L23.5851248,27.7100974 C23.5142735,27.7100974 23.4636654,27.6521519 23.4636654,27.5809947 L23.4636654,18.4870178 C23.4636654,18.4158606 23.5142735,18.3579151 23.5851248,18.3579151 L24.7065538,18.3579151 C24.7771751,18.3579151 24.8277831,18.4158606 24.8277831,18.4870178 L24.8277831,27.5809947 Z" id="Fill-44" fill="#FFFFFF"/>
                    <path d="M88.849762,29.2478232 L88.2798408,29.8961652 C88.0592262,29.7109246 87.8078174,29.5657423 87.5260741,29.4608498 C87.244101,29.3559574 86.9499481,29.3031638 86.6436155,29.3031638 C85.8898488,29.3031638 85.3275112,29.5379562 84.9568327,30.007078 C84.5859243,30.4766628 84.4006999,31.1002289 84.4006999,31.8780078 C84.4006999,32.643746 84.5859243,33.2612918 84.9568327,33.7304136 C85.3275112,34.1999984 85.883644,34.4343277 86.625231,34.4343277 C86.9561529,34.4343277 87.2686904,34.3711144 87.5628432,34.2444562 C87.8569961,34.1180295 88.1173673,33.9499236 88.3441868,33.7396756 L88.9508771,34.4065417 C88.668904,34.6908859 88.3258022,34.9159532 87.921342,35.0826698 C87.5168818,35.2496178 87.072665,35.3327445 86.5884618,35.3327445 C85.9020286,35.3327445 85.3167103,35.1875622 84.8327369,34.8974292 C84.3487635,34.6072961 83.9808426,34.2016193 83.7296637,33.679704 C83.4782549,33.1580202 83.3527803,32.5573776 83.3527803,31.8780078 C83.3527803,31.1926177 83.4782549,30.5908174 83.7296637,30.0721437 C83.9808426,29.5532386 84.3515212,29.148951 84.8419292,28.8585864 C85.3321074,28.5684534 85.9204131,28.4232711 86.6068464,28.4232711 C87.0542805,28.4232711 87.4722993,28.495978 87.8615922,28.6409287 C88.2508852,28.786111 88.5801985,28.9884864 88.849762,29.2478232" id="Fill-1" fill="#032E61"/>
                    <path d="M94.6960502,31.8873625 C94.6960502,31.1033317 94.5043913,30.4795341 94.1215329,30.0164326 C93.7384448,29.5533312 93.1761072,29.3217805 92.4347501,29.3217805 C91.6931631,29.3217805 91.1308256,29.5533312 90.7479672,30.0164326 C90.3648791,30.4795341 90.1734499,31.1033317 90.1734499,31.8873625 C90.1734499,32.6716247 90.3648791,33.2951908 90.7479672,33.7582923 C91.1308256,34.2213937 91.6931631,34.4529444 92.4347501,34.4529444 C93.1761072,34.4529444 93.7384448,34.2213937 94.1215329,33.7582923 C94.5043913,33.2951908 94.6960502,32.6716247 94.6960502,31.8873625 M89.1347226,31.8873625 C89.1347226,31.2019723 89.2647933,30.5999405 89.5253944,30.0812668 C89.7857656,29.5625932 90.1642576,29.159695 90.6606406,28.8725721 C91.1570236,28.5854492 91.7483168,28.4418877 92.4347501,28.4418877 C93.1209536,28.4418877 93.7124766,28.5854492 94.2088595,28.8725721 C94.7052425,29.159695 95.0835047,29.5625932 95.3441058,30.0812668 C95.604477,30.5999405 95.7347775,31.2019723 95.7347775,31.8873625 C95.7347775,32.5727526 95.604477,33.175016 95.3441058,33.6934581 C95.0835047,34.2121317 94.7052425,34.6150299 94.2088595,34.9023844 C93.7124766,35.1892757 93.1209536,35.3328372 92.4347501,35.3328372 C91.7483168,35.3328372 91.1570236,35.1892757 90.6606406,34.9023844 C90.1642576,34.6150299 89.7857656,34.2121317 89.5253944,33.6934581 C89.2647933,33.175016 89.1347226,32.5727526 89.1347226,31.8873625" id="Fill-4" fill="#032E61"/>
                    <polygon id="Fill-7" fill="#032E61" points="103.732128 28.6086737 103.732128 35.1661901 102.739362 35.1661901 102.766938 29.7849514 102.748554 29.7849514 100.569984 35.1661901 99.8162175 35.1661901 97.6652247 29.7849514 97.6468401 29.7849514 97.6744169 35.1661901 96.7368047 35.1661901 96.7368047 28.6086737 98.207569 28.6086737 100.202523 33.8139339 100.220678 33.8139339 102.233786 28.6086737"/>
                    <polygon id="Fill-9" fill="#032E61" points="111.894755 28.6086737 111.894755 35.1661901 110.901989 35.1661901 110.929566 29.7849514 110.911181 29.7849514 108.732611 35.1661901 107.978845 35.1661901 105.828082 29.7849514 105.809697 29.7849514 105.837274 35.1661901 104.899662 35.1661901 104.899662 28.6086737 106.370196 28.6086737 108.36515 33.8139339 108.383305 33.8139339 110.396414 28.6086737"/>
                    <path d="M113.199989,32.8043033 L113.199989,28.6086043 L114.201947,28.6086043 L114.201947,32.7304386 C114.201947,33.2984325 114.333627,33.727496 114.597215,34.0176291 C114.860804,34.3079937 115.286636,34.4529444 115.874942,34.4529444 C116.463247,34.4529444 116.88908,34.3079937 117.152668,34.0176291 C117.416027,33.727496 117.547936,33.2984325 117.547936,32.7304386 L117.547936,28.6086043 L118.559087,28.6086043 L118.559087,32.8043033 C118.559087,33.6070896 118.327671,34.2292664 117.86507,34.6708336 C117.402239,35.1121693 116.739016,35.3328372 115.874942,35.3328372 C115.016843,35.3328372 114.356607,35.1121693 113.894006,34.6708336 C113.431175,34.2292664 113.199989,33.6070896 113.199989,32.8043033" id="Fill-11" fill="#032E61"/>
                    <polygon id="Fill-14" fill="#032E61" points="119.86439 35.1661669 119.86439 28.6086506 121.013425 28.6086506 124.515452 33.7861247 124.533837 33.7861247 124.515452 28.6086506 125.453065 28.6086506 125.453065 35.1661669 124.294838 35.1661669 120.79281 29.9886929 120.774425 29.9886929 120.802002 35.1661669"/>
                    <polygon id="Fill-16" fill="#032E61" points="128.210817 29.3588518 128.210817 34.3881334 128.982968 34.3881334 128.982968 35.1661438 126.455092 35.1661438 126.455092 34.3881334 127.218281 34.3881334 127.218281 29.3588518 126.455092 29.3588518 126.455092 28.6086274 128.982968 28.6086274 128.982968 29.3588518"/>
                    <polygon id="Fill-18" fill="#032E61" points="134.516834 28.6086737 134.516834 29.4700424 132.512917 29.4700424 132.512917 35.1661901 131.492575 35.1661901 131.492575 29.4700424 129.488658 29.4700424 129.488658 28.6086737"/>
                    <polygon id="Fill-20" fill="#032E61" points="140.326192 28.6086737 138.009738 32.3690574 138.009738 35.1661901 137.00801 35.1661901 137.00801 32.3505334 134.728325 28.6086737 135.886552 28.6086737 137.550124 31.5354748 137.568509 31.5354748 139.213926 28.6086737"/>
                    <path d="M142.863031,31.8781004 C142.863031,31.1927103 142.993101,30.5922993 143.253702,30.0766358 C143.514074,29.5612039 143.891187,29.159695 144.384352,28.8725721 C144.877748,28.5854492 145.467432,28.4418877 146.153866,28.4418877 C146.595095,28.4418877 147.013573,28.5145947 147.408612,28.6595454 C147.80388,28.8047277 148.133423,29.0071031 148.396781,29.2662083 L147.82709,29.9147819 C147.606475,29.7232894 147.355067,29.575097 147.073093,29.4702045 C146.79135,29.3650805 146.496968,29.3125185 146.190635,29.3125185 C145.430663,29.3125185 144.859363,29.5473109 144.476505,30.0164326 C144.093417,30.4857859 143.901988,31.1063419 143.901988,31.8781004 C143.901988,32.6871386 144.083995,33.3245978 144.448698,33.7907094 C144.813172,34.2570525 145.384932,34.4899925 146.163058,34.4899925 C146.451006,34.4899925 146.711377,34.4622065 146.944402,34.4066343 C147.177196,34.3512937 147.407003,34.2709456 147.633822,34.1658215 L147.633822,32.5449665 L146.218442,32.5449665 L146.218442,31.757694 L148.562242,31.757694 L148.562242,34.7215433 C147.820655,35.1290725 147.01794,35.3328372 146.153866,35.3328372 C145.443073,35.3328372 144.840749,35.1892757 144.347583,34.9023844 C143.854188,34.6150299 143.483509,34.2121317 143.235318,33.6934581 C142.987126,33.175016 142.863031,32.5697424 142.863031,31.8781004" id="Fill-22" fill="#032E61"/>
                    <path d="M150.814258,32.0725567 L151.981678,32.0725567 C152.379933,32.0725567 152.707867,31.9630332 152.965251,31.7437547 C153.222635,31.5247077 153.351327,31.1991474 153.351327,30.7666107 C153.351327,30.316013 153.218039,29.9793382 152.951463,29.7570495 C152.685117,29.5347608 152.352356,29.423848 151.954101,29.423848 L150.814258,29.423848 L150.814258,32.0725567 Z M153.44325,35.1660743 L152.055216,32.8598292 L150.814258,32.8598292 L150.814258,35.1660743 L149.81253,35.1660743 L149.81253,28.6087895 L152.009254,28.6087895 C152.462893,28.6087895 152.868732,28.6905269 153.227231,28.8542333 C153.58596,29.0179396 153.867473,29.261531 154.07315,29.5859335 C154.278138,29.909873 154.381092,30.3035092 154.381092,30.7666107 C154.381092,31.2730121 154.258145,31.6821622 154.013171,31.9938295 C153.768197,32.3057283 153.434057,32.532648 153.011442,32.6748201 L154.601476,35.1660743 L153.44325,35.1660743 Z" id="Fill-25" fill="#032E61"/>
                    <path d="M160.640986,31.8873625 C160.640986,31.1033317 160.449327,30.4795341 160.066469,30.0164326 C159.683381,29.5533312 159.121043,29.3217805 158.379686,29.3217805 C157.638099,29.3217805 157.075762,29.5533312 156.692903,30.0164326 C156.309815,30.4795341 156.118386,31.1033317 156.118386,31.8873625 C156.118386,32.6716247 156.309815,33.2951908 156.692903,33.7582923 C157.075762,34.2213937 157.638099,34.4529444 158.379686,34.4529444 C159.121043,34.4529444 159.683381,34.2213937 160.066469,33.7582923 C160.449327,33.2951908 160.640986,32.6716247 160.640986,31.8873625 M155.079659,31.8873625 C155.079659,31.2019723 155.209729,30.5999405 155.470331,30.0812668 C155.730702,29.5625932 156.109194,29.159695 156.605577,28.8725721 C157.10196,28.5854492 157.693253,28.4418877 158.379686,28.4418877 C159.06589,28.4418877 159.657413,28.5854492 160.153796,28.8725721 C160.650179,29.159695 161.028671,29.5625932 161.289042,30.0812668 C161.549413,30.5999405 161.679714,31.2019723 161.679714,31.8873625 C161.679714,32.5727526 161.549413,33.175016 161.289042,33.6934581 C161.028671,34.2121317 160.650179,34.6150299 160.153796,34.9023844 C159.657413,35.1892757 159.06589,35.3328372 158.379686,35.3328372 C157.693253,35.3328372 157.10196,35.1892757 156.605577,34.9023844 C156.109194,34.6150299 155.730702,34.2121317 155.470331,33.6934581 C155.209729,33.175016 155.079659,32.5727526 155.079659,31.8873625" id="Fill-27" fill="#032E61"/>
                    <path d="M162.599493,32.8043033 L162.599493,28.6086043 L163.601451,28.6086043 L163.601451,32.7304386 C163.601451,33.2984325 163.733131,33.727496 163.996719,34.0176291 C164.260308,34.3079937 164.68614,34.4529444 165.274446,34.4529444 C165.862751,34.4529444 166.288584,34.3079937 166.552172,34.0176291 C166.815531,33.727496 166.94744,33.2984325 166.94744,32.7304386 L166.94744,28.6086043 L167.95859,28.6086043 L167.95859,32.8043033 C167.95859,33.6070896 167.727175,34.2292664 167.264574,34.6708336 C166.801742,35.1121693 166.13852,35.3328372 165.274446,35.3328372 C164.416346,35.3328372 163.756111,35.1121693 163.29351,34.6708336 C162.830679,34.2292664 162.599493,33.6070896 162.599493,32.8043033" id="Fill-30" fill="#032E61"/>
                    <path d="M170.081915,29.4237554 L170.081915,32.1375298 L171.276911,32.1375298 C171.681371,32.1375298 172.021485,32.0233753 172.297483,31.7948348 C172.573022,31.5665258 172.710906,31.2268409 172.710906,30.7760116 C172.710906,30.300638 172.57463,29.9563221 172.301849,29.7432954 C172.029298,29.5302687 171.684588,29.4237554 171.267718,29.4237554 L170.081915,29.4237554 Z M173.740441,30.7667496 C173.740441,31.2483751 173.630134,31.654515 173.409519,31.9847064 C173.189134,32.3148977 172.897739,32.560573 172.536482,32.7210377 C172.174536,32.8817339 171.785473,32.9618504 171.369063,32.9618504 L170.081915,32.9618504 L170.081915,35.1662133 L169.080186,35.1662133 L169.080186,28.6086969 L171.359871,28.6086969 C172.064459,28.6086969 172.637368,28.7862963 173.078597,29.1412635 C173.519826,29.4962308 173.740441,30.0380595 173.740441,30.7667496 Z" id="Fill-33" fill="#032E61"/>
                    <path d="M174.135847,34.5642277 L174.63223,33.9249162 C174.889613,34.1164086 175.154581,34.2571914 175.427362,34.34657 C175.699913,34.4359486 176.004866,34.4808694 176.341993,34.4808694 C176.758633,34.4808694 177.091164,34.3880176 177.339125,34.202777 C177.587547,34.017768 177.711642,33.746159 177.711642,33.38795 C177.711642,33.1346336 177.651893,32.9280903 177.532393,32.7671626 C177.412893,32.6069295 177.244215,32.4786504 177.026818,32.3830199 C176.809191,32.2871579 176.519634,32.1931483 176.158148,32.1002965 C175.563637,31.9398318 175.113215,31.7159223 174.806883,31.429031 C174.50032,31.1419081 174.347269,30.7482718 174.347269,30.2478907 C174.347269,29.8713893 174.446775,29.5472183 174.646018,29.2753777 C174.845031,29.0037687 175.113215,28.7986148 175.450342,28.6596844 C175.787469,28.5205224 176.16734,28.4512887 176.590185,28.4512887 C177.368311,28.4512887 178.048539,28.6643154 178.63087,29.0901371 L178.180449,29.7570032 C177.922835,29.5967701 177.66706,29.4761322 177.412893,29.3960156 C177.158497,29.3156675 176.884337,29.2753777 176.590185,29.2753777 C176.216289,29.2753777 175.915931,29.3527157 175.689341,29.5069284 C175.462522,29.6613728 175.349227,29.8899133 175.349227,30.1923186 C175.349227,30.4951869 175.459535,30.7234959 175.680149,30.8779402 C175.900764,31.032153 176.26225,31.1740936 176.764608,31.3039936 C177.408297,31.4767304 177.898475,31.714533 178.235602,32.0171698 C178.572499,32.3198066 178.741177,32.764384 178.741177,33.3509019 C178.741177,33.7832071 178.633858,34.1472049 178.419448,34.4435898 C178.204808,34.7402062 177.915251,34.9624949 177.550778,35.1104558 C177.186074,35.2588799 176.780005,35.3327445 176.332801,35.3327445 C175.909956,35.3327445 175.511471,35.266521 175.137805,35.1338425 C174.763909,35.0011639 174.429999,34.8110608 174.135847,34.5642277" id="Fill-35" fill="#032E61"/>
                </g>
            </g>
        </g>
    </g>
</svg>
